{
	"asset":{
		"generator":"Khronos glTF Blender I/O v5.0.21",
		"version":"2.0"
	},
	"extensionsUsed":[
		"KHR_materials_specular"
	],
	"scene":0,
	"scenes":[
		{
			"name":"Scene",
			"nodes":[
				0
			]
		}
	],
	"nodes":[
		{
			"mesh":0,
			"name":"trexForelimb_12000",
			"rotation":[
				0.7071068286895752,
				0,
				0,
				0.7071068286895752
			],
			"scale":[
				0.009999999776482582,
				0.009999999776482582,
				0.009999999776482582
			],
			"translation":[
				0,
				0.0009153514984063804,
				0
			]
		}
	],
	"materials":[
		{
			"doubleSided":true,
			"extensions":{
				"KHR_materials_specular":{
					"specularColorFactor":[
						0.0,
						0.0,
						0.0
					]
				}
			},
			"name":"trex_forelimb2:Trex_forelimb1",
			"pbrMetallicRoughness":{
				"baseColorTexture":{
					"index":0
				},
				"metallicFactor":0,
				"roughnessFactor":0.858578622341156
			}
		}
	],
	"meshes":[
		{
			"name":"Mesh.001",
			"primitives":[
				{
					"attributes":{
						"POSITION":0,
						"NORMAL":1,
						"TEXCOORD_0":2
					},
					"indices":3,
					"material":0
				}
			]
		}
	],
	"textures":[
		{
			"sampler":0,
			"source":0
		}
	],
	"images":[
		{
			"mimeType":"image/jpeg",
			"name":"Trex_forelimb",
			"uri":"Trex_forelimb.jpg"
		}
	],
	"accessors":[
		{
			"bufferView":0,
			"componentType":5126,
			"count":59027,
			"max":[
				31.28669548034668,
				19.21091079711914,
				16.874177932739258
			],
			"min":[
				-31.326183319091797,
				-3.798290729522705,
				-3.589244842529297
			],
			"type":"VEC3"
		},
		{
			"bufferView":1,
			"componentType":5126,
			"count":59027,
			"type":"VEC3"
		},
		{
			"bufferView":2,
			"componentType":5126,
			"count":59027,
			"type":"VEC2"
		},
		{
			"bufferView":3,
			"componentType":5123,
			"count":68565,
			"type":"SCALAR"
		}
	],
	"bufferViews":[
		{
			"buffer":0,
			"byteLength":708324,
			"byteOffset":0,
			"target":34962
		},
		{
			"buffer":0,
			"byteLength":708324,
			"byteOffset":708324,
			"target":34962
		},
		{
			"buffer":0,
			"byteLength":472216,
			"byteOffset":1416648,
			"target":34962
		},
		{
			"buffer":0,
			"byteLength":137130,
			"byteOffset":1888864,
			"target":34963
		}
	],
	"samplers":[
		{
			"magFilter":9729,
			"minFilter":9987
		}
	],
	"buffers":[
		{
			"byteLength":2025996,
			"uri":"trexForelimb.bin"
		}
	]
}
