{
	"asset":{
		"generator":"Khronos glTF Blender I/O v5.0.21",
		"version":"2.0"
	},
	"extensionsUsed":[
		"KHR_materials_specular"
	],
	"scene":0,
	"scenes":[
		{
			"name":"Scene",
			"nodes":[
				0
			]
		}
	],
	"nodes":[
		{
			"mesh":0,
			"name":"trex_tooth_7500",
			"rotation":[
				0.7071068286895752,
				0,
				0,
				0.7071068286895752
			],
			"scale":[
				0.009999999776482582,
				0.009999999776482582,
				0.009999999776482582
			]
		}
	],
	"materials":[
		{
			"doubleSided":true,
			"extensions":{
				"KHR_materials_specular":{
					"specularColorFactor":[
						0.0,
						0.0,
						0.0
					]
				}
			},
			"name":"phong2",
			"pbrMetallicRoughness":{
				"baseColorTexture":{
					"index":0
				},
				"metallicFactor":0,
				"roughnessFactor":0.5527864098548889
			}
		}
	],
	"meshes":[
		{
			"name":"Mesh.009",
			"primitives":[
				{
					"attributes":{
						"POSITION":0,
						"NORMAL":1,
						"TEXCOORD_0":2
					},
					"indices":3,
					"material":0
				}
			]
		}
	],
	"textures":[
		{
			"sampler":0,
			"source":0
		}
	],
	"images":[
		{
			"mimeType":"image/jpeg",
			"name":"3D Trex Tooth w Texture",
			"uri":"3D%20Trex%20Tooth%20w%20Texture.jpg"
		}
	],
	"accessors":[
		{
			"bufferView":0,
			"componentType":5126,
			"count":42351,
			"max":[
				34.52296447753906,
				21.858774185180664,
				7.142054557800293
			],
			"min":[
				-29.37883758544922,
				-15.379889488220215,
				-10.719230651855469
			],
			"type":"VEC3"
		},
		{
			"bufferView":1,
			"componentType":5126,
			"count":42351,
			"type":"VEC3"
		},
		{
			"bufferView":2,
			"componentType":5126,
			"count":42351,
			"type":"VEC2"
		},
		{
			"bufferView":3,
			"componentType":5123,
			"count":44694,
			"type":"SCALAR"
		}
	],
	"bufferViews":[
		{
			"buffer":0,
			"byteLength":508212,
			"byteOffset":0,
			"target":34962
		},
		{
			"buffer":0,
			"byteLength":508212,
			"byteOffset":508212,
			"target":34962
		},
		{
			"buffer":0,
			"byteLength":338808,
			"byteOffset":1016424,
			"target":34962
		},
		{
			"buffer":0,
			"byteLength":89388,
			"byteOffset":1355232,
			"target":34963
		}
	],
	"samplers":[
		{
			"magFilter":9729,
			"minFilter":9987
		}
	],
	"buffers":[
		{
			"byteLength":1444620,
			"uri":"trexTooth.bin"
		}
	]
}
