{
	"asset":{
		"generator":"Khronos glTF Blender I/O v5.0.21",
		"version":"2.0"
	},
	"extensionsUsed":[
		"KHR_materials_specular"
	],
	"scene":0,
	"scenes":[
		{
			"name":"Scene",
			"nodes":[
				0
			]
		}
	],
	"nodes":[
		{
			"mesh":0,
			"name":"trexAstragalus_7500",
			"rotation":[
				0.7071068286895752,
				0,
				0,
				0.7071068286895752
			],
			"scale":[
				0.009999999776482582,
				0.009999999776482582,
				0.009999999776482582
			]
		}
	],
	"materials":[
		{
			"doubleSided":true,
			"extensions":{
				"KHR_materials_specular":{
					"specularColorFactor":[
						0.0,
						0.0,
						0.0
					]
				}
			},
			"name":"astragalus_2:Astragalus1",
			"pbrMetallicRoughness":{
				"baseColorTexture":{
					"index":0
				},
				"metallicFactor":0,
				"roughnessFactor":0.858578622341156
			}
		}
	],
	"meshes":[
		{
			"name":"Mesh",
			"primitives":[
				{
					"attributes":{
						"POSITION":0,
						"NORMAL":1,
						"TEXCOORD_0":2
					},
					"indices":3,
					"material":0
				}
			]
		}
	],
	"textures":[
		{
			"sampler":0,
			"source":0
		}
	],
	"images":[
		{
			"mimeType":"image/jpeg",
			"name":"Astragalus",
			"uri":"Astragalus.jpg"
		}
	],
	"accessors":[
		{
			"bufferView":0,
			"componentType":5126,
			"count":38847,
			"max":[
				15.62559700012207,
				19.138919830322266,
				10.256034851074219
			],
			"min":[
				-22.4094181060791,
				-20.343524932861328,
				-5.97770881652832
			],
			"type":"VEC3"
		},
		{
			"bufferView":1,
			"componentType":5126,
			"count":38847,
			"type":"VEC3"
		},
		{
			"bufferView":2,
			"componentType":5126,
			"count":38847,
			"type":"VEC2"
		},
		{
			"bufferView":3,
			"componentType":5123,
			"count":44916,
			"type":"SCALAR"
		}
	],
	"bufferViews":[
		{
			"buffer":0,
			"byteLength":466164,
			"byteOffset":0,
			"target":34962
		},
		{
			"buffer":0,
			"byteLength":466164,
			"byteOffset":466164,
			"target":34962
		},
		{
			"buffer":0,
			"byteLength":310776,
			"byteOffset":932328,
			"target":34962
		},
		{
			"buffer":0,
			"byteLength":89832,
			"byteOffset":1243104,
			"target":34963
		}
	],
	"samplers":[
		{
			"magFilter":9729,
			"minFilter":9987
		}
	],
	"buffers":[
		{
			"byteLength":1332936,
			"uri":"trexAstragalus.bin"
		}
	]
}
