{
	"asset":{
		"generator":"Khronos glTF Blender I/O v5.0.21",
		"version":"2.0"
	},
	"scene":0,
	"scenes":[
		{
			"name":"Scene",
			"nodes":[
				0,
				1
			]
		}
	],
	"nodes":[
		{
			"mesh":0,
			"name":"trikeSkull_7500",
			"rotation":[
				-1,
				0,
				0,
				4.371138828673793e-08
			],
			"scale":[
				0.009999999776482582,
				0.009999999776482582,
				0.009999999776482582
			]
		},
		{
			"mesh":1,
			"name":"trikeSkull_7500.001",
			"rotation":[
				-1,
				0,
				0,
				4.371138828673793e-08
			],
			"scale":[
				0.009999999776482582,
				0.009999999776482582,
				0.009999999776482582
			]
		}
	],
	"materials":[
		{
			"doubleSided":true,
			"name":"triceratops_export:Default_OBJ2.001",
			"pbrMetallicRoughness":{
				"baseColorTexture":{
					"index":0
				},
				"metallicFactor":0,
				"roughnessFactor":0
			}
		}
	],
	"meshes":[
		{
			"name":"Mesh.007",
			"primitives":[
				{
					"attributes":{
						"POSITION":0,
						"NORMAL":1,
						"TEXCOORD_0":2
					},
					"indices":3,
					"material":0
				}
			]
		},
		{
			"name":"Mesh.008",
			"primitives":[
				{
					"attributes":{
						"POSITION":4,
						"NORMAL":5,
						"TEXCOORD_0":6
					},
					"indices":3,
					"material":0
				}
			]
		}
	],
	"textures":[
		{
			"sampler":0,
			"source":0
		}
	],
	"images":[
		{
			"mimeType":"image/jpeg",
			"name":"triceratops-100k-4096-diffuse",
			"uri":"triceratops-100k-4096-diffuse.jpg"
		}
	],
	"accessors":[
		{
			"bufferView":0,
			"componentType":5126,
			"count":15683,
			"max":[
				33.51106643676758,
				14.423924446105957,
				18.74308204650879
			],
			"min":[
				-25.22698211669922,
				-25.58365249633789,
				-22.943822860717773
			],
			"type":"VEC3"
		},
		{
			"bufferView":1,
			"componentType":5126,
			"count":15683,
			"type":"VEC3"
		},
		{
			"bufferView":2,
			"componentType":5126,
			"count":15683,
			"type":"VEC2"
		},
		{
			"bufferView":3,
			"componentType":5123,
			"count":42942,
			"type":"SCALAR"
		},
		{
			"bufferView":4,
			"componentType":5126,
			"count":15683,
			"max":[
				33.51106643676758,
				14.423924446105957,
				18.74308204650879
			],
			"min":[
				-25.22698211669922,
				-25.58365249633789,
				-22.943822860717773
			],
			"type":"VEC3"
		},
		{
			"bufferView":5,
			"componentType":5126,
			"count":15683,
			"type":"VEC3"
		},
		{
			"bufferView":6,
			"componentType":5126,
			"count":15683,
			"type":"VEC2"
		}
	],
	"bufferViews":[
		{
			"buffer":0,
			"byteLength":188196,
			"byteOffset":0,
			"target":34962
		},
		{
			"buffer":0,
			"byteLength":188196,
			"byteOffset":188196,
			"target":34962
		},
		{
			"buffer":0,
			"byteLength":125464,
			"byteOffset":376392,
			"target":34962
		},
		{
			"buffer":0,
			"byteLength":85884,
			"byteOffset":501856,
			"target":34963
		},
		{
			"buffer":0,
			"byteLength":188196,
			"byteOffset":587740,
			"target":34962
		},
		{
			"buffer":0,
			"byteLength":188196,
			"byteOffset":775936,
			"target":34962
		},
		{
			"buffer":0,
			"byteLength":125464,
			"byteOffset":964132,
			"target":34962
		}
	],
	"samplers":[
		{
			"magFilter":9729,
			"minFilter":9987
		}
	],
	"buffers":[
		{
			"byteLength":1089596,
			"uri":"trikeSkull.bin"
		}
	]
}
