{
	"asset":{
		"generator":"Khronos glTF Blender I/O v5.0.21",
		"version":"2.0"
	},
	"extensionsUsed":[
		"KHR_materials_specular"
	],
	"scene":0,
	"scenes":[
		{
			"name":"Scene",
			"nodes":[
				0
			]
		}
	],
	"nodes":[
		{
			"mesh":0,
			"name":"trikeQuadrate_10000",
			"rotation":[
				0.7071068286895752,
				0,
				0,
				0.7071068286895752
			],
			"scale":[
				0.009999999776482582,
				0.009999999776482582,
				0.009999999776482582
			]
		}
	],
	"materials":[
		{
			"doubleSided":true,
			"extensions":{
				"KHR_materials_specular":{
					"specularColorFactor":[
						0.0,
						0.0,
						0.0
					]
				}
			},
			"name":"trikequad",
			"pbrMetallicRoughness":{
				"baseColorTexture":{
					"index":0
				},
				"metallicFactor":0,
				"roughnessFactor":0.5527864098548889
			}
		}
	],
	"meshes":[
		{
			"name":"Mesh.003",
			"primitives":[
				{
					"attributes":{
						"POSITION":0,
						"NORMAL":1,
						"TEXCOORD_0":2
					},
					"indices":3,
					"material":0
				}
			]
		}
	],
	"textures":[
		{
			"sampler":0,
			"source":0
		}
	],
	"images":[
		{
			"mimeType":"image/jpeg",
			"name":"Trike Quadrate, With Texture, High Resolution",
			"uri":"Trike%20Quadrate%2C%20With%20Texture%2C%20High%20Resolution.jpg"
		}
	],
	"accessors":[
		{
			"bufferView":0,
			"componentType":5126,
			"count":59083,
			"max":[
				19.35372543334961,
				18.373517990112305,
				8.04417896270752
			],
			"min":[
				-19.376428604125977,
				-17.322280883789062,
				-8.065014839172363
			],
			"type":"VEC3"
		},
		{
			"bufferView":1,
			"componentType":5126,
			"count":59083,
			"type":"VEC3"
		},
		{
			"bufferView":2,
			"componentType":5126,
			"count":59083,
			"type":"VEC2"
		},
		{
			"bufferView":3,
			"componentType":5123,
			"count":63180,
			"type":"SCALAR"
		}
	],
	"bufferViews":[
		{
			"buffer":0,
			"byteLength":708996,
			"byteOffset":0,
			"target":34962
		},
		{
			"buffer":0,
			"byteLength":708996,
			"byteOffset":708996,
			"target":34962
		},
		{
			"buffer":0,
			"byteLength":472664,
			"byteOffset":1417992,
			"target":34962
		},
		{
			"buffer":0,
			"byteLength":126360,
			"byteOffset":1890656,
			"target":34963
		}
	],
	"samplers":[
		{
			"magFilter":9729,
			"minFilter":9987
		}
	],
	"buffers":[
		{
			"byteLength":2017016,
			"uri":"trikeQuadrate.bin"
		}
	]
}
