{
	"asset":{
		"generator":"Khronos glTF Blender I/O v5.0.21",
		"version":"2.0"
	},
	"extensionsUsed":[
		"KHR_materials_specular"
	],
	"scene":0,
	"scenes":[
		{
			"name":"Scene",
			"nodes":[
				0
			]
		}
	],
	"nodes":[
		{
			"mesh":0,
			"name":"turtleHumerus_7500",
			"rotation":[
				0.7071068286895752,
				0,
				0,
				0.7071068286895752
			],
			"scale":[
				0.009999999776482582,
				0.009999999776482582,
				0.009999999776482582
			],
			"translation":[
				0,
				0.004351000767201185,
				0
			]
		}
	],
	"materials":[
		{
			"doubleSided":true,
			"extensions":{
				"KHR_materials_specular":{
					"specularColorFactor":[
						0.0,
						0.0,
						0.0
					]
				}
			},
			"name":"turtle_humerus2:Turtle_Humerus1",
			"pbrMetallicRoughness":{
				"baseColorTexture":{
					"index":0
				},
				"metallicFactor":0,
				"roughnessFactor":0.858578622341156
			}
		}
	],
	"meshes":[
		{
			"name":"Mesh.005",
			"primitives":[
				{
					"attributes":{
						"POSITION":0,
						"NORMAL":1,
						"TEXCOORD_0":2
					},
					"indices":3,
					"material":0
				}
			]
		}
	],
	"textures":[
		{
			"sampler":0,
			"source":0
		}
	],
	"images":[
		{
			"mimeType":"image/jpeg",
			"name":"Turtle_Humerus",
			"uri":"Turtle_Humerus.jpg"
		}
	],
	"accessors":[
		{
			"bufferView":0,
			"componentType":5126,
			"count":35519,
			"max":[
				24.132314682006836,
				17.633934020996094,
				8.5398588180542
			],
			"min":[
				-25.057294845581055,
				-16.768186569213867,
				-11.69506549835205
			],
			"type":"VEC3"
		},
		{
			"bufferView":1,
			"componentType":5126,
			"count":35519,
			"type":"VEC3"
		},
		{
			"bufferView":2,
			"componentType":5126,
			"count":35519,
			"type":"VEC2"
		},
		{
			"bufferView":3,
			"componentType":5123,
			"count":44721,
			"type":"SCALAR"
		}
	],
	"bufferViews":[
		{
			"buffer":0,
			"byteLength":426228,
			"byteOffset":0,
			"target":34962
		},
		{
			"buffer":0,
			"byteLength":426228,
			"byteOffset":426228,
			"target":34962
		},
		{
			"buffer":0,
			"byteLength":284152,
			"byteOffset":852456,
			"target":34962
		},
		{
			"buffer":0,
			"byteLength":89442,
			"byteOffset":1136608,
			"target":34963
		}
	],
	"samplers":[
		{
			"magFilter":9729,
			"minFilter":9987
		}
	],
	"buffers":[
		{
			"byteLength":1226052,
			"uri":"turtleHumorous.bin"
		}
	]
}
